<svg width="112" height="110" viewBox="0 0 112 110" fill="none" xmlns="http://www.w3.org/2000/svg">
<path fill-rule="evenodd" clip-rule="evenodd" d="M61.1545 50.4688C73.4345 58.8287 90.0345 76.5088 90.3045 97.2988C69.7945 113.499 40.7745 113.229 20.3945 96.8988C38.0745 85.8288 52.6445 69.3587 61.1545 50.4688Z" fill="#75CA51"/>
<path fill-rule="evenodd" clip-rule="evenodd" d="M61.1523 50.47C68.5723 34.68 71.8123 17.27 71.0023 0C85.0423 3.91 96.9123 13.36 104.072 25.78C111.222 38.2 113.382 53.18 109.742 67.35C95.2923 57.76 78.5623 51.95 61.1523 50.47Z" fill="#75CA51"/>
<path fill-rule="evenodd" clip-rule="evenodd" d="M35.2335 1.75C53.0435 12.41 60.0635 35.62 61.1435 50.47C40.4935 48.31 19.0335 52.76 0.683505 62.48C-3.3565 36.7 10.8135 11.46 35.2335 1.75Z" fill="#75CA51"/>
</svg>
