<svg width="498" height="118" viewBox="0 0 498 118" fill="none" xmlns="http://www.w3.org/2000/svg">
<path fill-rule="evenodd" clip-rule="evenodd" d="M61.8225 51.5781C74.1025 59.9381 90.7025 77.6181 90.9725 98.4081C70.4625 114.608 41.4425 114.338 21.0625 98.0081C38.7425 86.9381 53.3125 70.4681 61.8225 51.5781Z" fill="white"/>
<path fill-rule="evenodd" clip-rule="evenodd" d="M61.8203 51.5794C69.2403 35.7894 72.4803 18.3794 71.6703 1.10938C85.7103 5.01938 97.5803 14.4694 104.74 26.8894C111.89 39.3094 114.05 54.2894 110.41 68.4594C95.9603 58.8694 79.2303 53.0594 61.8203 51.5794Z" fill="white"/>
<path fill-rule="evenodd" clip-rule="evenodd" d="M35.9015 2.85938C53.7115 13.5194 60.7315 36.7294 61.8115 51.5794C41.1615 49.4194 19.7015 53.8694 1.35147 63.5894C-2.68853 37.8094 11.4815 12.5694 35.9015 2.85938Z" fill="white"/>
<path fill-rule="evenodd" clip-rule="evenodd" d="M154.802 110.818C159.522 110.818 163.172 108.658 163.172 103.798V103.668C163.172 99.6181 159.662 98.1381 156.562 97.1881C154.132 96.3781 152.112 95.8381 152.112 94.6281V94.4981C152.112 93.6881 152.922 93.0181 154.402 93.0181C155.752 93.0181 157.372 93.5581 159.122 94.3681C159.522 94.6381 159.792 94.6381 160.332 94.6381C161.682 94.6381 162.892 93.5581 162.892 92.2081C162.892 91.1281 162.352 90.3181 161.412 89.9181C159.252 88.8381 156.962 88.2981 154.662 88.2981C150.212 88.2981 146.702 90.7281 146.702 95.3181V95.4481C146.702 99.7681 150.212 101.118 153.312 102.058C155.742 102.728 157.902 103.268 157.902 104.618V104.748C157.902 105.688 157.092 106.368 155.342 106.368C153.592 106.368 151.432 105.698 149.402 104.348C149.132 104.078 148.592 104.078 148.192 104.078C146.842 104.078 145.762 105.158 145.762 106.508C145.762 107.448 146.302 108.258 146.972 108.668C149.142 110.008 152.102 110.818 154.802 110.818ZM187.602 91.3881C187.602 89.6381 186.252 88.2881 184.502 88.2881C182.752 88.2881 181.402 89.6381 181.402 91.3881V100.698C181.402 103.668 179.922 105.148 177.492 105.148C175.062 105.148 173.712 103.668 173.712 100.698V91.3881C173.712 89.6381 172.362 88.2881 170.612 88.2881C168.862 88.2881 167.512 89.6381 167.512 91.3881V102.728C167.512 107.718 170.212 110.828 174.932 110.828C178.032 110.828 179.922 109.208 181.412 107.318V107.588C181.412 109.338 182.762 110.688 184.512 110.688C186.262 110.688 187.612 109.338 187.612 107.588V91.3881H187.602ZM193.132 114.058C193.132 115.808 194.482 117.158 196.232 117.158C197.982 117.158 199.332 115.808 199.332 114.058V107.448C200.812 109.198 202.842 110.688 206.212 110.688C211.342 110.688 216.202 106.638 216.202 99.3481V99.2181C216.202 91.9281 211.342 87.8781 206.212 87.8781C202.972 87.8781 200.952 89.3581 199.332 91.3881V91.1181C199.332 89.3681 197.982 88.0181 196.232 88.0181C194.482 88.0181 193.132 89.3681 193.132 91.1181V114.058ZM204.602 105.558C201.632 105.558 199.342 103.128 199.342 99.4881V99.3581C199.342 95.7181 201.772 93.2881 204.602 93.2881C207.572 93.2881 210.002 95.7181 210.002 99.3581V99.4881C210.002 103.128 207.572 105.558 204.602 105.558ZM225.792 97.7281C226.332 94.8981 227.952 93.0081 230.512 93.0081C233.072 93.0081 234.832 94.8981 235.102 97.7281H225.792ZM238.882 108.258C239.282 107.858 239.692 107.178 239.692 106.368C239.692 105.018 238.612 103.938 237.262 103.938C236.592 103.938 236.182 104.068 235.782 104.478C234.572 105.418 233.082 105.958 231.332 105.958C228.502 105.958 226.612 104.478 225.932 101.638H238.212C239.832 101.638 241.182 100.428 241.182 98.6681C241.182 94.0781 237.942 88.1381 230.652 88.1381C224.312 88.1381 219.852 93.2681 219.852 99.6081V99.7381C219.852 106.488 224.712 111.078 231.322 111.078C234.432 110.818 236.862 109.878 238.882 108.258ZM245.902 107.588C245.902 109.338 247.252 110.688 249.002 110.688C250.752 110.688 252.102 109.338 252.102 107.588V101.788C252.102 97.3381 253.852 94.9081 256.962 94.2281C258.172 93.9581 259.252 93.0181 259.252 91.2581C259.252 89.5081 258.172 88.2881 256.282 88.2881C254.392 88.2881 252.912 90.3081 252.102 92.3381V91.3981C252.102 89.6481 250.752 88.2981 249.002 88.2981C247.252 88.2981 245.902 89.6481 245.902 91.3981V107.588ZM263.042 107.588C263.042 109.338 264.392 110.688 266.142 110.688C267.892 110.688 269.242 109.338 269.242 107.588V98.1381C269.242 95.1681 270.722 93.6881 273.022 93.6881C275.312 93.6881 276.662 95.1681 276.662 98.1381V107.588C276.662 109.338 278.012 110.688 279.762 110.688C281.512 110.688 282.862 109.338 282.862 107.588V98.1381C282.862 95.1681 284.342 93.6881 286.642 93.6881C288.932 93.6881 290.282 95.1681 290.282 98.1381V107.588C290.282 109.338 291.632 110.688 293.382 110.688C295.132 110.688 296.482 109.338 296.482 107.588V96.1081C296.482 90.8481 293.652 88.0081 289.062 88.0081C286.092 88.0081 283.802 89.2181 281.912 91.5181C280.702 89.3581 278.542 88.0081 275.702 88.0081C272.602 88.0081 270.712 89.6281 269.222 91.5181V91.2481C269.222 89.4981 267.872 88.1481 266.122 88.1481C264.372 88.1481 263.022 89.4981 263.022 91.2481L263.042 107.588ZM308.122 110.818C311.092 110.818 313.252 109.738 314.732 107.988C314.732 109.338 315.942 110.548 317.702 110.548C319.322 110.548 320.672 109.198 320.672 107.578V97.5981C320.672 94.6281 320.002 92.1981 318.242 90.5781C316.622 88.9581 314.192 88.1481 310.822 88.1481C307.852 88.1481 305.832 88.5481 303.802 89.3581C302.862 89.7581 302.182 90.7081 302.182 91.7881C302.182 93.2681 303.392 94.3481 304.742 94.3481C305.012 94.3481 305.282 94.3481 305.682 94.2181C306.892 93.8181 308.242 93.5481 310.002 93.5481C313.102 93.5481 314.722 95.0281 314.722 97.5981V97.9981C313.102 97.4581 311.622 97.0581 309.322 97.0581C304.192 97.0581 300.552 99.2181 300.552 104.078V104.208C300.562 108.398 303.932 110.818 308.122 110.818ZM310.012 106.508C307.992 106.508 306.642 105.568 306.642 103.808V103.678C306.642 101.658 308.262 100.708 310.962 100.708C312.442 100.708 313.932 100.978 314.872 101.518V102.598C314.872 104.888 312.982 106.508 310.012 106.508ZM326.202 107.588C326.202 109.338 327.552 110.688 329.302 110.688C331.052 110.688 332.402 109.338 332.402 107.588V101.788C332.402 97.3381 334.152 94.9081 337.262 94.2281C338.472 93.9581 339.552 93.0181 339.552 91.2581C339.552 89.5081 338.472 88.2881 336.582 88.2881C334.692 88.2881 333.212 90.3081 332.402 92.3381V91.3981C332.402 89.6481 331.052 88.2981 329.302 88.2981C327.552 88.2981 326.202 89.6481 326.202 91.3981V107.588ZM343.212 107.588C343.212 109.338 344.562 110.688 346.312 110.688C348.062 110.688 349.412 109.338 349.412 107.588V104.078L351.842 101.788L357.242 109.348C357.912 110.428 358.722 110.828 359.942 110.828C361.562 110.828 362.912 109.618 362.912 107.998C362.912 107.328 362.642 106.788 362.102 105.978L356.302 97.9981L361.162 93.8181C361.972 93.0081 362.642 92.1981 362.642 91.1181C362.642 89.6381 361.562 88.2881 359.942 88.2881C358.862 88.2881 358.052 88.8281 357.242 89.6381L349.412 97.0581V83.4281C349.412 81.6781 348.062 80.3281 346.312 80.3281C344.562 80.3281 343.212 81.6781 343.212 83.4281V107.588ZM371.952 97.7281C372.492 94.8981 374.112 93.0081 376.672 93.0081C379.232 93.0081 380.992 94.8981 381.262 97.7281H371.952ZM384.912 108.258C385.312 107.858 385.722 107.178 385.722 106.368C385.722 105.018 384.642 103.938 383.292 103.938C382.622 103.938 382.212 104.068 381.812 104.478C380.602 105.418 379.112 105.958 377.362 105.958C374.532 105.958 372.642 104.478 371.962 101.638H384.242C385.862 101.638 387.212 100.428 387.212 98.6681C387.212 94.0781 383.972 88.1381 376.682 88.1381C370.342 88.1381 365.882 93.2681 365.882 99.6081V99.7381C365.882 106.488 370.742 111.078 377.352 111.078C380.462 110.818 383.022 109.878 384.912 108.258ZM399.492 110.818C400.842 110.818 401.922 110.688 403.002 110.148C403.812 109.878 404.622 108.938 404.622 107.858C404.622 106.378 403.412 105.298 402.062 105.298C401.932 105.298 401.522 105.298 401.392 105.298C400.042 105.298 399.372 104.628 399.372 103.138V93.8281H402.072C403.552 93.8281 404.772 92.6181 404.772 91.1281C404.772 89.6381 403.562 88.4281 402.072 88.4281H399.372V85.7281C399.372 83.9781 398.022 82.6281 396.272 82.6281C394.522 82.6281 393.172 83.9781 393.172 85.7281V88.4281H392.902C391.422 88.4281 390.202 89.6381 390.202 91.1281C390.202 92.6181 391.412 93.8281 392.902 93.8281H393.172V104.218C393.012 109.208 395.572 110.818 399.492 110.818Z" fill="white"/>
<path fill-rule="evenodd" clip-rule="evenodd" d="M476.68 69.1184C482.08 69.1184 486.8 67.0984 490.99 63.0484C495.17 58.9984 497.33 53.8684 497.33 47.9284V41.3184C497.33 35.3784 495.17 30.2484 490.99 26.3384C486.67 22.4284 481.81 20.3984 476.55 20.3984H458.87C453.47 20.3984 448.48 22.4184 444.02 26.3384C439.57 30.3884 437.41 35.3784 437.41 41.3184V48.1984C437.41 54.1384 439.57 59.2684 443.75 63.1784C447.93 67.0884 452.66 69.1184 458.06 69.1184H476.68ZM483.03 42.3984V46.7184C483.03 49.6884 481.95 52.3884 479.93 54.5484C477.77 56.7084 475.34 57.6484 472.51 57.6484H462.12C459.29 57.6484 456.72 56.5684 454.7 54.5484C452.54 52.3884 451.6 49.8284 451.6 46.7184V42.3984C451.6 39.2984 452.68 36.5984 454.7 34.5684C456.86 32.5484 459.29 31.4684 462.26 31.4684H472.65C475.75 31.4684 478.18 32.5484 480.21 34.5684C482.08 36.5984 483.16 39.2984 483.03 42.3984Z" fill="white"/>
<path fill-rule="evenodd" clip-rule="evenodd" d="M400.43 43.3356C400.43 39.6956 401.24 36.7256 402.99 34.6956C404.61 32.5356 407.17 31.5956 410.55 31.5956H431.06V20.2656H407.58C401.24 20.2656 395.97 22.4256 392.19 26.4756C388.28 30.5256 386.25 36.0556 386.25 42.9456V69.1256H400.42L400.43 43.3356Z" fill="white"/>
<path fill-rule="evenodd" clip-rule="evenodd" d="M361.56 20.2681L355.89 28.7681C354.54 30.7881 353.19 32.2781 351.84 33.2181C350.49 34.1581 348.74 34.5681 346.44 34.5681H334.97V0.828125H320.66V69.1181H334.97V45.9081H343.2C346.57 45.9081 348.87 46.3081 350.08 47.1181C351.29 47.9281 352.51 49.6781 353.86 52.1081L363.04 69.1081H379.1L367.22 47.1081C365.33 43.7381 362.9 41.7081 359.53 41.3081C362.63 40.6381 364.93 38.8781 366.82 36.1781L377.48 20.3881L361.56 20.2681Z" fill="white"/>
<path fill-rule="evenodd" clip-rule="evenodd" d="M262.37 38.885C258.73 38.885 255.49 40.235 252.52 42.935C249.55 45.635 248.07 49.275 248.07 53.865C248.07 58.045 249.42 61.555 252.12 64.525C254.82 67.495 258.19 68.975 262.11 68.975H289.91C295.58 68.975 300.03 67.225 303.27 63.575C306.51 60.065 308.13 55.885 308.13 51.155V36.995C308.13 32.275 306.51 28.225 303.41 24.985C300.31 21.745 295.31 20.125 288.7 20.125H254.96V31.595H286.81C289.24 31.595 290.99 32.135 292.21 33.075C293.42 34.155 293.83 35.505 293.83 36.985V38.605L262.37 38.885ZM293.95 49.005V51.975C293.95 53.595 293.41 54.945 292.33 56.025C291.12 57.105 289.77 57.645 287.88 57.645H265.2C264.12 57.645 263.18 57.245 262.37 56.435C261.56 55.625 261.16 54.545 261.16 53.195C261.16 51.985 261.56 50.905 262.37 50.095C263.18 49.425 264.12 48.885 265.2 48.885L293.95 49.005Z" fill="white"/>
<path fill-rule="evenodd" clip-rule="evenodd" d="M199.481 69.1199V44.9599C199.481 41.3199 200.421 38.0799 202.181 35.5099C205.691 30.2499 217.571 30.2499 221.751 34.8399C223.641 36.9999 224.581 39.6999 224.581 42.9399V69.2599H238.751V43.0699C238.751 36.4599 236.861 30.9199 233.081 26.7399C223.631 16.2099 200.821 18.5099 192.731 29.2999C185.041 17.9599 161.551 17.1499 152.241 27.0099C148.191 31.3299 146.031 36.7299 146.031 43.0699V69.2499H160.201V42.9399C160.201 39.6999 161.141 36.9999 163.031 34.9799C167.081 30.5299 178.821 30.5299 182.601 35.2499C184.351 37.5399 185.161 40.5099 185.161 44.1599V69.2599L199.481 69.1199Z" fill="white"/>
</svg>
