<?xml version="1.0" encoding="utf-8"?>
<!-- Generator: Adobe Illustrator 23.0.3, SVG Export Plug-In . SVG Version: 6.00 Build 0)  -->
<svg version="1.1" id="Слой_1" xmlns="http://www.w3.org/2000/svg" xmlns:xlink="http://www.w3.org/1999/xlink" x="0px" y="0px"
	 viewBox="0 0 500 120" style="enable-background:new 0 0 500 120;" xml:space="preserve">
<style type="text/css">
	.st0{fill-rule:evenodd;clip-rule:evenodd;fill:#75CA51;}
</style>
<g>
	<path class="st0" d="M62.82,52.58C75.1,60.94,91.7,78.62,91.97,99.41c-20.51,16.2-49.53,15.93-69.91-0.4
		C39.74,87.94,54.31,71.47,62.82,52.58"/>
	<path class="st0" d="M62.82,52.58c7.42-15.79,10.66-33.2,9.85-50.47c14.04,3.91,25.91,13.36,33.07,25.78
		c7.15,12.42,9.31,27.4,5.67,41.57C96.96,59.87,80.23,54.06,62.82,52.58"/>
	<path class="st0" d="M36.9,3.86c17.81,10.66,24.83,33.87,25.91,48.72c-20.65-2.16-42.11,2.29-60.46,12.01
		C-1.69,38.81,12.48,13.57,36.9,3.86"/>
	<path class="st0" d="M155.8,111.82c4.72,0,8.37-2.16,8.37-7.02v-0.13c0-4.05-3.51-5.53-6.61-6.48c-2.43-0.81-4.45-1.35-4.45-2.56
		v-0.13c0-0.81,0.81-1.48,2.29-1.48c1.35,0,2.97,0.54,4.72,1.35c0.4,0.27,0.67,0.27,1.21,0.27c1.35,0,2.56-1.08,2.56-2.43
		c0-1.08-0.54-1.89-1.48-2.29c-2.16-1.08-4.45-1.62-6.75-1.62c-4.45,0-7.96,2.43-7.96,7.02v0.13c0,4.32,3.51,5.67,6.61,6.61
		c2.43,0.67,4.59,1.21,4.59,2.56v0.13c0,0.94-0.81,1.62-2.56,1.62s-3.91-0.67-5.94-2.02c-0.27-0.27-0.81-0.27-1.21-0.27
		c-1.35,0-2.43,1.08-2.43,2.43c0,0.94,0.54,1.75,1.21,2.16C150.14,111.01,153.1,111.82,155.8,111.82 M188.6,92.39
		c0-1.75-1.35-3.1-3.1-3.1c-1.75,0-3.1,1.35-3.1,3.1v9.31c0,2.97-1.48,4.45-3.91,4.45c-2.43,0-3.78-1.48-3.78-4.45v-9.31
		c0-1.75-1.35-3.1-3.1-3.1s-3.1,1.35-3.1,3.1v11.34c0,4.99,2.7,8.1,7.42,8.1c3.1,0,4.99-1.62,6.48-3.51v0.27
		c0,1.75,1.35,3.1,3.1,3.1c1.75,0,3.1-1.35,3.1-3.1V92.39z M194.13,115.06c0,1.75,1.35,3.1,3.1,3.1c1.75,0,3.1-1.35,3.1-3.1v-6.61
		c1.48,1.75,3.51,3.24,6.88,3.24c5.13,0,9.99-4.05,9.99-11.34v-0.13c0-7.29-4.86-11.34-9.99-11.34c-3.24,0-5.26,1.48-6.88,3.51
		v-0.27c0-1.75-1.35-3.1-3.1-3.1c-1.75,0-3.1,1.35-3.1,3.1V115.06z M205.6,106.56c-2.97,0-5.26-2.43-5.26-6.07v-0.13
		c0-3.64,2.43-6.07,5.26-6.07c2.97,0,5.4,2.43,5.4,6.07v0.13C211,104.13,208.57,106.56,205.6,106.56 M226.79,98.73
		c0.54-2.83,2.16-4.72,4.72-4.72c2.56,0,4.32,1.89,4.59,4.72H226.79z M239.88,109.26c0.4-0.4,0.81-1.08,0.81-1.89
		c0-1.35-1.08-2.43-2.43-2.43c-0.67,0-1.08,0.13-1.48,0.54c-1.21,0.94-2.7,1.48-4.45,1.48c-2.83,0-4.72-1.48-5.4-4.32h12.28
		c1.62,0,2.97-1.21,2.97-2.97c0-4.59-3.24-10.53-10.53-10.53c-6.34,0-10.8,5.13-10.8,11.47v0.13c0,6.75,4.86,11.34,11.47,11.34
		C235.43,111.82,237.86,110.88,239.88,109.26 M246.9,108.59c0,1.75,1.35,3.1,3.1,3.1s3.1-1.35,3.1-3.1v-5.8
		c0-4.45,1.75-6.88,4.86-7.56c1.21-0.27,2.29-1.21,2.29-2.97c0-1.75-1.08-2.97-2.97-2.97c-1.89,0-3.37,2.02-4.18,4.05v-0.94
		c0-1.75-1.35-3.1-3.1-3.1s-3.1,1.35-3.1,3.1L246.9,108.59L246.9,108.59z M264.04,108.59c0,1.75,1.35,3.1,3.1,3.1
		c1.75,0,3.1-1.35,3.1-3.1v-9.45c0-2.97,1.48-4.45,3.78-4.45c2.29,0,3.64,1.48,3.64,4.45v9.45c0,1.75,1.35,3.1,3.1,3.1
		s3.1-1.35,3.1-3.1v-9.45c0-2.97,1.48-4.45,3.78-4.45c2.29,0,3.64,1.48,3.64,4.45v9.45c0,1.75,1.35,3.1,3.1,3.1s3.1-1.35,3.1-3.1
		V97.11c0-5.26-2.83-8.1-7.42-8.1c-2.97,0-5.26,1.21-7.15,3.51c-1.21-2.16-3.37-3.51-6.21-3.51c-3.1,0-4.99,1.62-6.48,3.51v-0.27
		c0-1.75-1.35-3.1-3.1-3.1s-3.1,1.35-3.1,3.1L264.04,108.59L264.04,108.59z M309.12,111.82c2.97,0,5.13-1.08,6.61-2.83l0,0
		c0,1.35,1.21,2.56,2.97,2.56c1.62,0,2.97-1.35,2.97-2.97V98.6c0-2.97-0.67-5.4-2.43-7.02c-1.62-1.62-4.05-2.43-7.42-2.43
		c-2.97,0-4.99,0.4-7.02,1.21c-0.94,0.4-1.62,1.35-1.62,2.43c0,1.48,1.21,2.56,2.56,2.56c0.27,0,0.54,0,0.94-0.13
		c1.21-0.4,2.56-0.67,4.32-0.67c3.1,0,4.72,1.48,4.72,4.05V99c-1.62-0.54-3.1-0.94-5.4-0.94c-5.13,0-8.77,2.16-8.77,7.02v0.13
		C301.56,109.4,304.93,111.82,309.12,111.82 M311.01,107.51c-2.02,0-3.37-0.94-3.37-2.7v-0.13c0-2.02,1.62-2.97,4.32-2.97
		c1.48,0,2.97,0.27,3.91,0.81v1.08C315.87,105.89,313.98,107.51,311.01,107.51 M327.2,108.59c0,1.75,1.35,3.1,3.1,3.1
		s3.1-1.35,3.1-3.1v-5.8c0-4.45,1.75-6.88,4.86-7.56c1.21-0.27,2.29-1.21,2.29-2.97c0-1.75-1.08-2.97-2.97-2.97
		c-1.89,0-3.37,2.02-4.18,4.05v-0.94c0-1.75-1.35-3.1-3.1-3.1s-3.1,1.35-3.1,3.1V108.59z M344.21,108.59c0,1.75,1.35,3.1,3.1,3.1
		s3.1-1.35,3.1-3.1v-3.51l2.43-2.29l5.4,7.56c0.67,1.08,1.48,1.48,2.7,1.48c1.62,0,2.97-1.21,2.97-2.83c0-0.67-0.27-1.21-0.81-2.02
		L357.3,99l4.86-4.18c0.81-0.81,1.48-1.62,1.48-2.7c0-1.48-1.08-2.83-2.7-2.83c-1.08,0-1.89,0.54-2.7,1.35l-7.83,7.42V84.43
		c0-1.75-1.35-3.1-3.1-3.1c-1.75,0-3.1,1.35-3.1,3.1L344.21,108.59L344.21,108.59z M372.95,98.73c0.54-2.83,2.16-4.72,4.72-4.72
		c2.56,0,4.32,1.89,4.59,4.72H372.95z M385.91,109.26c0.4-0.4,0.81-1.08,0.81-1.89c0-1.35-1.08-2.43-2.43-2.43
		c-0.67,0-1.08,0.13-1.48,0.54c-1.21,0.94-2.7,1.48-4.45,1.48c-2.83,0-4.72-1.48-5.4-4.32h12.28c1.62,0,2.97-1.21,2.97-2.97
		c0-4.59-3.24-10.53-10.53-10.53c-6.34,0-10.8,5.13-10.8,11.47v0.13c0,6.75,4.86,11.34,11.47,11.34
		C381.46,111.82,384.02,110.88,385.91,109.26 M400.49,111.82c1.35,0,2.43-0.13,3.51-0.67c0.81-0.27,1.62-1.21,1.62-2.29
		c0-1.48-1.21-2.56-2.56-2.56c-0.13,0-0.54,0-0.67,0c-1.35,0-2.02-0.67-2.02-2.16v-9.31h2.7c1.48,0,2.7-1.21,2.7-2.7
		s-1.21-2.7-2.7-2.7h-2.7v-2.7c0-1.75-1.35-3.1-3.1-3.1c-1.75,0-3.1,1.35-3.1,3.1v2.7h-0.27c-1.48,0-2.7,1.21-2.7,2.7
		s1.21,2.7,2.7,2.7h0.27v10.39C394.01,110.21,396.57,111.82,400.49,111.82"/>
	<path class="st0" d="M477.68,70.12c5.4,0,10.12-2.02,14.31-6.07c4.18-4.05,6.34-9.18,6.34-15.12v-6.61
		c0-5.94-2.16-11.07-6.34-14.98c-4.32-3.91-9.18-5.94-14.44-5.94h-17.68c-5.4,0-10.39,2.02-14.85,5.94
		c-4.45,4.05-6.61,9.04-6.61,14.98v6.88c0,5.94,2.16,11.07,6.34,14.98c4.18,3.91,8.91,5.94,14.31,5.94L477.68,70.12L477.68,70.12z
		 M484.03,43.4v4.32c0,2.97-1.08,5.67-3.1,7.83c-2.16,2.16-4.59,3.1-7.42,3.1h-10.39c-2.83,0-5.4-1.08-7.42-3.1
		c-2.16-2.16-3.1-4.72-3.1-7.83V43.4c0-3.1,1.08-5.8,3.1-7.83c2.16-2.02,4.59-3.1,7.56-3.1h10.39c3.1,0,5.53,1.08,7.56,3.1
		C483.08,37.6,484.16,40.3,484.03,43.4L484.03,43.4z"/>
	<path class="st0" d="M401.43,44.34c0-3.64,0.81-6.61,2.56-8.64c1.62-2.16,4.18-3.1,7.56-3.1h20.51V21.27h-23.48
		c-6.34,0-11.61,2.16-15.39,6.21c-3.91,4.05-5.94,9.58-5.94,16.47v26.18h14.17L401.43,44.34L401.43,44.34z"/>
	<path class="st0" d="M362.56,21.27l-5.67,8.5c-1.35,2.02-2.7,3.51-4.05,4.45c-1.35,0.94-3.1,1.35-5.4,1.35h-11.47V1.83h-14.31
		v68.29h14.31V46.91h8.23c3.37,0,5.67,0.4,6.88,1.21c1.21,0.81,2.43,2.56,3.78,4.99l9.18,17h16.06l-11.88-22
		c-1.89-3.37-4.32-5.4-7.69-5.8c3.1-0.67,5.4-2.43,7.29-5.13l10.66-15.79L362.56,21.27L362.56,21.27z"/>
	<path class="st0" d="M263.37,39.89c-3.64,0-6.88,1.35-9.85,4.05c-2.97,2.7-4.45,6.34-4.45,10.93c0,4.18,1.35,7.69,4.05,10.66
		c2.7,2.97,6.07,4.45,9.99,4.45h27.8c5.67,0,10.12-1.75,13.36-5.4c3.24-3.51,4.86-7.69,4.86-12.42V38c0-4.72-1.62-8.77-4.72-12.01
		s-8.1-4.86-14.71-4.86h-33.74V32.6h31.85c2.43,0,4.18,0.54,5.4,1.48c1.21,1.08,1.62,2.43,1.62,3.91v1.62L263.37,39.89z
		 M294.95,50.01v2.97c0,1.62-0.54,2.97-1.62,4.05c-1.21,1.08-2.56,1.62-4.45,1.62H266.2c-1.08,0-2.02-0.4-2.83-1.21
		c-0.81-0.81-1.21-1.89-1.21-3.24c0-1.21,0.4-2.29,1.21-3.1c0.81-0.67,1.75-1.21,2.83-1.21L294.95,50.01z"/>
	<path class="st0" d="M200.48,70.12V45.96c0-3.64,0.94-6.88,2.7-9.45c3.51-5.26,15.39-5.26,19.57-0.67c1.89,2.16,2.83,4.86,2.83,8.1
		v26.32h14.17V44.07c0-6.61-1.89-12.15-5.67-16.33c-9.45-10.53-32.26-8.23-40.35,2.56c-7.69-11.34-31.18-12.15-40.49-2.29
		c-4.05,4.32-6.21,9.72-6.21,16.06v26.18h14.17V43.94c0-3.24,0.94-5.94,2.83-7.96c4.05-4.45,15.79-4.45,19.57,0.27
		c1.75,2.29,2.56,5.26,2.56,8.91v25.1L200.48,70.12z"/>
</g>
</svg>
